<svg xmlns="http://www.w3.org/2000/svg" xmlns:xlink="http://www.w3.org/1999/xlink" width="500" zoomAndPan="magnify" viewBox="70 50 225 250" height="500" preserveAspectRatio="xMidYMid meet" version="1.0">
  <style>.logo-fill { fill: #ffffff; }</style>
  <defs><g/><clipPath id="c87445d04e"><path d="M 239.339844 60.597656 L 286.234375 60.597656 L 286.234375 107.496094 L 239.339844 107.496094 Z M 239.339844 60.597656 " clip-rule="nonzero"/></clipPath><clipPath id="49a7d3a2da"><path d="M 262.789062 60.597656 C 249.839844 60.597656 239.339844 71.097656 239.339844 84.046875 C 239.339844 96.996094 249.839844 107.496094 262.789062 107.496094 C 275.738281 107.496094 286.234375 96.996094 286.234375 84.046875 C 286.234375 71.097656 275.738281 60.597656 262.789062 60.597656 Z M 262.789062 60.597656 " clip-rule="nonzero"/></clipPath><clipPath id="e3d8206182"><path d="M 0.339844 0.597656 L 47.234375 0.597656 L 47.234375 47.496094 L 0.339844 47.496094 Z M 0.339844 0.597656 " clip-rule="nonzero"/></clipPath><clipPath id="820e33efbf"><path d="M 23.789062 0.597656 C 10.839844 0.597656 0.339844 11.097656 0.339844 24.046875 C 0.339844 36.996094 10.839844 47.496094 23.789062 47.496094 C 36.738281 47.496094 47.234375 36.996094 47.234375 24.046875 C 47.234375 11.097656 36.738281 0.597656 23.789062 0.597656 Z M 23.789062 0.597656 " clip-rule="nonzero"/></clipPath><clipPath id="edc152df15"><rect x="0" width="48" y="0" height="48"/></clipPath><clipPath id="34cf47b135"><rect x="0" width="158" y="0" height="367"/></clipPath></defs><g clip-path="url(#c87445d04e)"><g clip-path="url(#49a7d3a2da)"><g transform="matrix(1, 0, 0, 1, 239, 60)"><g clip-path="url(#edc152df15)"><g clip-path="url(#e3d8206182)"><g clip-path="url(#820e33efbf)"><path class="logo-fill" d="M 0.339844 0.597656 L 47.234375 0.597656 L 47.234375 47.496094 L 0.339844 47.496094 Z M 0.339844 0.597656 " fill-opacity="1" fill-rule="nonzero"/></g></g></g></g></g></g><g transform="matrix(1, 0, 0, 1, 78, 3)"><g clip-path="url(#34cf47b135)"><g class="logo-fill" fill-opacity="1"><g transform="translate(0.738918, 289.072653)"><g><path d="M 14.53125 -84.125 C 14.53125 -109.519531 20.546875 -129.941406 32.578125 -145.390625 C 44.609375 -160.835938 60.363281 -168.5625 79.84375 -168.5625 C 99.21875 -168.5625 114.566406 -161.929688 125.890625 -148.671875 L 125.890625 -234.953125 L 154.1875 -234.953125 L 154.1875 0 L 128.1875 0 L 126.8125 -17.75 C 115.488281 -3.875 99.734375 3.0625 79.546875 3.0625 C 60.367188 3.0625 44.738281 -4.785156 32.65625 -20.484375 C 20.570312 -36.191406 14.53125 -56.691406 14.53125 -81.984375 Z M 42.828125 -80.921875 C 42.828125 -62.148438 46.703125 -47.460938 54.453125 -36.859375 C 62.203125 -26.253906 72.910156 -20.953125 86.578125 -20.953125 C 104.523438 -20.953125 117.628906 -29.007812 125.890625 -45.125 L 125.890625 -121.140625 C 117.421875 -136.742188 104.414062 -144.546875 86.875 -144.546875 C 73.007812 -144.546875 62.203125 -139.191406 54.453125 -128.484375 C 46.703125 -117.773438 42.828125 -101.921875 42.828125 -80.921875 Z M 42.828125 -80.921875 "/></g></g></g></g></g></svg>
