<?xml version="1.0" encoding="utf-8"?>
<!-- Generator: Adobe Illustrator 26.0.2, SVG Export Plug-In . SVG Version: 6.00 Build 0)  -->
<svg version="1.1" id="Capa_1" xmlns="http://www.w3.org/2000/svg" xmlns:xlink="http://www.w3.org/1999/xlink" x="0px" y="0px"
	 viewBox="0 0 80 80" style="enable-background:new 0 0 80 80;" xml:space="preserve">
<style type="text/css">
	.st0{fill:#F22E62;}
</style>
<g>
	<polygon class="st0" points="59.7,44.7 59.8,44.9 64.9,39.8 39.6,14.6 34.6,19.7 52,37.1 19.5,34.8 19.5,34.8 14.4,39.8 39.6,65 
		44.7,60 27.2,42.5 59.7,44.8 	"/>
	<polygon class="st0" points="26.3,56.7 22.7,56.7 22.7,53.2 9.4,39.8 17,32.3 11.9,27.2 -0.7,39.8 3.8,44.3 4.3,44.9 15.9,56.4 
		15.9,63.6 23,63.6 34.6,75.1 39.6,80.2 52.2,67.6 47.2,62.5 39.6,70.1 	"/>
	<polygon class="st0" points="56.1,16.2 44.5,4.7 39.5,-0.4 27,12.1 32.1,17.1 39.5,9.7 52.8,23.1 56.4,23.1 56.4,26.6 69.7,40 
		62.3,47.4 67.4,52.4 79.8,40 74.8,34.9 63.2,23.4 63.2,16.2 	"/>
</g>
</svg>
